HIERARCHY
ROOT Hips
{
	OFFSET 0.00 0.00 0.00
	CHANNELS 6 Xposition Yposition Zposition Xrotation Yrotation Zrotation
	JOINT LeftUpLeg
	{
		OFFSET 2.83210 0.00000 0.00000
		CHANNELS 3 Xrotation Yrotation Zrotation
		JOINT LeftLeg
		{
			OFFSET 0.00000 -16.27150 0.00000
			CHANNELS 3 Xrotation Yrotation Zrotation
			JOINT LeftFoot
			{
				OFFSET 0.00000 -14.95190 0.00000
				CHANNELS 3 Xrotation Yrotation Zrotation
				JOINT LeftToeBase
				{
					OFFSET 0.00000 -1.07991 4.03030
					CHANNELS 3 Xrotation Yrotation Zrotation
					End Site
					{
						OFFSET 0.00000 0.00000 2.95275
					}
				}
			}
		}
	}
	JOINT RightUpLeg
	{
		OFFSET -2.83210 0.00000 0.00000
		CHANNELS 3 Xrotation Yrotation Zrotation
		JOINT RightLeg
		{
			OFFSET 0.00000 -16.27150 0.00000
			CHANNELS 3 Xrotation Yrotation Zrotation
			JOINT RightFoot
			{
				OFFSET 0.00000 -14.95190 0.00000
				CHANNELS 3 Xrotation Yrotation Zrotation
				JOINT RightToeBase
				{
					OFFSET 0.00000 -1.07991 4.03030
					CHANNELS 3 Xrotation Yrotation Zrotation
					End Site
					{
						OFFSET 0.00000 0.00000 2.95275
					}
				}
			}
		}
	}
	JOINT Spine
	{
		OFFSET 0.00000 0.03937 0.00000
		CHANNELS 3 Xrotation Yrotation Zrotation
		JOINT Spine1
		{
			OFFSET 0.00000 8.01054 0.00000
			CHANNELS 3 Xrotation Yrotation Zrotation
			JOINT Neck
			{
				OFFSET 0.00000 8.21888 0.00000
				CHANNELS 3 Xrotation Yrotation Zrotation
				JOINT Head
				{
					OFFSET 0.00000 3.25664 0.00000
					CHANNELS 3 Xrotation Yrotation Zrotation
					End Site
					{
						OFFSET 0.00000 4.52755 0.00000
					}
				}
			}
			JOINT LeftShoulder
			{
				OFFSET 0.00000 8.21888 0.00000
				CHANNELS 3 Xrotation Yrotation Zrotation
				JOINT LeftArm
				{
					OFFSET 6.52904 -0.00002 0.00000
					CHANNELS 3 Xrotation Yrotation Zrotation
					JOINT LeftForeArm
					{
						OFFSET 10.44840 -0.00004 0.00000
						CHANNELS 3 Xrotation Yrotation Zrotation
						JOINT LeftHand
						{
							OFFSET 8.94727 -0.00003 0.00000
							CHANNELS 3 Xrotation Yrotation Zrotation
							JOINT LeftHandThumb
							{
								OFFSET 0.00000 0.00000 0.00000
								CHANNELS 3 Xrotation Yrotation Zrotation
								End Site
								{
									OFFSET 0.00000 0.00000 3.93700
								}
							}
							JOINT L_Wrist_End
							{
								OFFSET 3.93700 -0.00001 0.00000
								CHANNELS 3 Xrotation Yrotation Zrotation
							}
						}
					}
				}
			}
			JOINT RightShoulder
			{
				OFFSET 0.00000 8.21888 0.00000
				CHANNELS 3 Xrotation Yrotation Zrotation
				JOINT RightArm
				{
					OFFSET -6.52904 -0.00002 0.00000
					CHANNELS 3 Xrotation Yrotation Zrotation
					JOINT RightForeArm
					{
						OFFSET -10.44840 -0.00004 0.00000
						CHANNELS 3 Xrotation Yrotation Zrotation
						JOINT RightHand
						{
							OFFSET -8.94727 -0.00003 0.00000
							CHANNELS 3 Xrotation Yrotation Zrotation
							JOINT RightHandThumb
							{
								OFFSET 0.00000 0.00000 0.00000
								CHANNELS 3 Xrotation Yrotation Zrotation
								End Site
								{
									OFFSET 0.00000 0.00000 3.93700
								}
							}
							JOINT R_Wrist_End
							{
								OFFSET -5.39369 -0.00002 0.00000
								CHANNELS 3 Xrotation Yrotation Zrotation
							}
						}
					}
				}
			}
		}
	}
}
MOTION
Frames: 6
Frame Time: 0.008333
 -9.3834 32.9736 -1.3116 100.7916 -78.6465 103.5889 -33.8654 -6.1810 -5.1014 34.0753 0.0000 0.0000 -1.8512 24.6236 -7.6883 14.8739 0.0000 -0.0000 -1.8165 7.1251 2.2933 1.0571 0.0000 0.0000 -8.1323 -5.2889 20.2389 19.5251 -0.0000 -0.0000 -9.7818 5.2238 -8.9112 10.9839 -3.9160 7.5521 -25.8510 17.1721 -2.2358 -3.3410 -39.2152 -7.4836 16.0237 20.1308 -1.2969 -14.8829 -20.0530 -80.2438 -0.0000 -9.7066 -0.0000 0.6791 -16.4129 0.0766 -0.0000 0.0000 -0.0000 -0.0000 0.0000 -0.0000 16.6080 -14.6849 1.3265 -26.7137 28.5407 71.1872 -0.0001 14.6161 0.0000 -5.6845 -2.8527 -4.6379 0.0000 0.0000 -0.0000 0.0000 0.0000 -0.0000
 -9.6369 32.9449 -1.3030 102.0962 -78.5079 105.0124 -33.8014 -5.5998 -5.1954 31.4685 -0.0000 0.0000 -0.8598 22.9967 -8.9215 12.1184 0.0000 0.0000 -1.6346 7.2238 2.1492 1.4913 -0.0000 -0.0000 -8.6182 -5.1020 20.3049 19.6098 0.0000 0.0000 -9.8420 5.2568 -8.9288 11.0207 -3.8982 7.5068 -25.9832 17.1999 -2.2831 -3.0688 -39.0527 -7.3248 16.0849 20.1484 -1.3976 -14.6965 -20.0001 -80.0481 -0.0000 -9.6579 -0.0000 0.6608 -16.4041 0.0414 0.0000 -0.0000 0.0000 0.0000 -0.0000 0.0000 16.6042 -14.6231 1.3776 -26.7911 28.8879 71.1860 -0.0001 14.8202 0.0000 -5.7012 -2.8520 -4.6102 -0.0000 0.0000 0.0000 -0.0000 0.0000 0.0000
 -9.8966 32.9141 -1.2950 103.1310 -78.4050 106.1491 -33.6410 -4.9019 -5.2989 28.7737 0.0000 -0.0000 0.2675 21.3632 -9.7972 11.2703 -0.0000 0.0000 -1.3886 7.2327 2.0207 1.8641 0.0000 -0.0000 -9.0952 -4.8173 20.6071 20.9179 0.0000 0.0000 -9.8972 5.2760 -8.9344 11.0871 -3.8919 7.4687 -26.1814 17.2051 -2.3408 -2.7154 -38.8904 -7.1370 16.1085 20.1592 -1.4949 -14.5033 -20.0040 -79.8281 -0.0000 -9.6073 -0.0000 0.6525 -16.3916 -0.0050 -0.0000 -0.0000 0.0000 -0.0000 -0.0000 0.0000 16.5955 -14.5860 1.4130 -26.8683 29.1954 71.2047 -0.0001 15.0053 0.0000 -5.7688 -2.8314 -4.5247 -0.0000 -0.0000 -0.0000 -0.0000 -0.0000 -0.0000
 -10.1588 32.8778 -1.2918 103.9595 -78.3169 107.0294 -33.4244 -4.2514 -5.3559 26.0548 0.0000 0.0000 1.6289 19.8126 -11.1864 10.5644 0.0000 0.0000 -1.1334 7.2522 1.9525 2.2379 -0.0000 0.0000 -9.6764 -4.6210 21.1157 22.0065 -0.0000 0.0000 -9.9200 5.2799 -8.9243 11.0972 -3.8950 7.4488 -26.2582 17.1812 -2.4183 -2.4992 -38.7409 -6.9770 16.1267 20.1627 -1.5550 -14.3001 -20.0108 -79.6089 -0.0000 -9.6092 -0.0000 0.6158 -16.3538 -0.0110 -0.0000 0.0000 0.0000 -0.0000 0.0000 0.0000 16.6138 -14.5410 1.4074 -26.9061 29.5082 71.2487 -0.0001 15.1596 0.0000 -5.8588 -2.7808 -4.5131 -0.0000 -0.0000 0.0000 -0.0000 -0.0000 0.0000
 -10.4273 32.8386 -1.2918 104.3550 -78.2804 107.4604 -33.1290 -3.6813 -5.4364 23.3254 0.0000 0.0000 3.0639 18.4551 -12.5015 9.8746 0.0000 -0.0000 -0.8077 7.1754 1.9189 2.5717 -0.0000 0.0000 -10.1159 -4.5163 21.2997 22.1620 0.0000 0.0000 -9.9519 5.2756 -8.9193 11.1766 -3.9024 7.4393 -26.4004 17.1643 -2.4529 -2.3040 -38.6454 -6.8826 16.1609 20.1274 -1.6097 -14.1830 -19.9747 -79.3848 -0.0000 -9.6358 -0.0000 0.6470 -16.3290 -0.0033 0.0000 0.0000 -0.0000 0.0000 0.0000 -0.0000 16.6097 -14.5612 1.4259 -26.9343 29.7659 71.3031 -0.0001 15.3264 0.0000 -5.9384 -2.7598 -4.4743 -0.0000 -0.0000 -0.0000 -0.0000 -0.0000 -0.0000
 -10.6925 32.7961 -1.2943 104.4655 -78.2063 107.5774 -32.8851 -3.0832 -5.5126 20.6616 0.0000 -0.0000 4.2627 17.2606 -13.4963 9.5591 -0.0000 0.0000 -0.5515 7.0737 1.9328 2.9235 -0.0000 -0.0000 -10.5889 -4.5982 21.3942 21.8547 0.0000 0.0000 -9.9648 5.2428 -8.9171 11.1710 -3.9338 7.4496 -26.6367 17.0579 -2.5933 -1.8489 -38.4729 -6.5564 16.1719 20.1070 -1.6593 -14.0480 -19.9690 -79.1475 -0.0000 -9.6710 -0.0000 0.6502 -16.2989 0.0437 0.0000 0.0000 0.0000 0.0000 0.0000 0.0000 16.6010 -14.5663 1.4381 -26.8634 29.9762 71.3319 -0.0001 15.5829 0.0000 -5.8727 -2.8239 -4.5410 -0.0000 -0.0000 -0.0000 -0.0000 -0.0000 -0.0000
